<?xml version="1.0" encoding="utf-8"?>
<svg xmlns="http://www.w3.org/2000/svg" xmlns:xlink="http://www.w3.org/1999/xlink" xml:space="preserve" width="980" height="980" viewBox="0 0 980 980"><rect width="980" height="980" fill="#ffffff" x="0" y="0"/><g fill="#4ca739">
<g transform="translate(200,40) scale(3.4333333333333)"><rect width="6" height="6"/></g>
<g transform="translate(220,40) scale(3.4333333333333)"><rect width="6" height="6"/></g>
<g transform="translate(240,40) scale(3.4333333333333)"><rect width="6" height="6"/></g>
<g transform="translate(340,40) scale(3.4333333333333)"><rect width="6" height="6"/></g>
<g transform="translate(360,40) scale(3.4333333333333)"><rect width="6" height="6"/></g>
<g transform="translate(400,40) scale(3.4333333333333)"><rect width="6" height="6"/></g>
<g transform="translate(420,40) scale(3.4333333333333)"><rect width="6" height="6"/></g>
<g transform="translate(440,40) scale(3.4333333333333)"><rect width="6" height="6"/></g>
<g transform="translate(460,40) scale(3.4333333333333)"><rect width="6" height="6"/></g>
<g transform="translate(480,40) scale(3.4333333333333)"><rect width="6" height="6"/></g>
<g transform="translate(500,40) scale(3.4333333333333)"><rect width="6" height="6"/></g>
<g transform="translate(580,40) scale(3.4333333333333)"><rect width="6" height="6"/></g>
<g transform="translate(620,40) scale(3.4333333333333)"><rect width="6" height="6"/></g>
<g transform="translate(640,40) scale(3.4333333333333)"><rect width="6" height="6"/></g>
<g transform="translate(700,40) scale(3.4333333333333)"><rect width="6" height="6"/></g>
<g transform="translate(760,40) scale(3.4333333333333)"><rect width="6" height="6"/></g>
<g transform="translate(240,60) scale(3.4333333333333)"><rect width="6" height="6"/></g>
<g transform="translate(260,60) scale(3.4333333333333)"><rect width="6" height="6"/></g>
<g transform="translate(320,60) scale(3.4333333333333)"><rect width="6" height="6"/></g>
<g transform="translate(360,60) scale(3.4333333333333)"><rect width="6" height="6"/></g>
<g transform="translate(400,60) scale(3.4333333333333)"><rect width="6" height="6"/></g>
<g transform="translate(440,60) scale(3.4333333333333)"><rect width="6" height="6"/></g>
<g transform="translate(480,60) scale(3.4333333333333)"><rect width="6" height="6"/></g>
<g transform="translate(520,60) scale(3.4333333333333)"><rect width="6" height="6"/></g>
<g transform="translate(560,60) scale(3.4333333333333)"><rect width="6" height="6"/></g>
<g transform="translate(580,60) scale(3.4333333333333)"><rect width="6" height="6"/></g>
<g transform="translate(600,60) scale(3.4333333333333)"><rect width="6" height="6"/></g>
<g transform="translate(620,60) scale(3.4333333333333)"><rect width="6" height="6"/></g>
<g transform="translate(680,60) scale(3.4333333333333)"><rect width="6" height="6"/></g>
<g transform="translate(740,60) scale(3.4333333333333)"><rect width="6" height="6"/></g>
<g transform="translate(300,80) scale(3.4333333333333)"><rect width="6" height="6"/></g>
<g transform="translate(320,80) scale(3.4333333333333)"><rect width="6" height="6"/></g>
<g transform="translate(380,80) scale(3.4333333333333)"><rect width="6" height="6"/></g>
<g transform="translate(440,80) scale(3.4333333333333)"><rect width="6" height="6"/></g>
<g transform="translate(460,80) scale(3.4333333333333)"><rect width="6" height="6"/></g>
<g transform="translate(480,80) scale(3.4333333333333)"><rect width="6" height="6"/></g>
<g transform="translate(500,80) scale(3.4333333333333)"><rect width="6" height="6"/></g>
<g transform="translate(520,80) scale(3.4333333333333)"><rect width="6" height="6"/></g>
<g transform="translate(540,80) scale(3.4333333333333)"><rect width="6" height="6"/></g>
<g transform="translate(560,80) scale(3.4333333333333)"><rect width="6" height="6"/></g>
<g transform="translate(580,80) scale(3.4333333333333)"><rect width="6" height="6"/></g>
<g transform="translate(600,80) scale(3.4333333333333)"><rect width="6" height="6"/></g>
<g transform="translate(640,80) scale(3.4333333333333)"><rect width="6" height="6"/></g>
<g transform="translate(700,80) scale(3.4333333333333)"><rect width="6" height="6"/></g>
<g transform="translate(740,80) scale(3.4333333333333)"><rect width="6" height="6"/></g>
<g transform="translate(220,100) scale(3.4333333333333)"><rect width="6" height="6"/></g>
<g transform="translate(240,100) scale(3.4333333333333)"><rect width="6" height="6"/></g>
<g transform="translate(320,100) scale(3.4333333333333)"><rect width="6" height="6"/></g>
<g transform="translate(360,100) scale(3.4333333333333)"><rect width="6" height="6"/></g>
<g transform="translate(380,100) scale(3.4333333333333)"><rect width="6" height="6"/></g>
<g transform="translate(440,100) scale(3.4333333333333)"><rect width="6" height="6"/></g>
<g transform="translate(520,100) scale(3.4333333333333)"><rect width="6" height="6"/></g>
<g transform="translate(560,100) scale(3.4333333333333)"><rect width="6" height="6"/></g>
<g transform="translate(580,100) scale(3.4333333333333)"><rect width="6" height="6"/></g>
<g transform="translate(660,100) scale(3.4333333333333)"><rect width="6" height="6"/></g>
<g transform="translate(680,100) scale(3.4333333333333)"><rect width="6" height="6"/></g>
<g transform="translate(740,100) scale(3.4333333333333)"><rect width="6" height="6"/></g>
<g transform="translate(760,100) scale(3.4333333333333)"><rect width="6" height="6"/></g>
<g transform="translate(200,120) scale(3.4333333333333)"><rect width="6" height="6"/></g>
<g transform="translate(240,120) scale(3.4333333333333)"><rect width="6" height="6"/></g>
<g transform="translate(300,120) scale(3.4333333333333)"><rect width="6" height="6"/></g>
<g transform="translate(320,120) scale(3.4333333333333)"><rect width="6" height="6"/></g>
<g transform="translate(340,120) scale(3.4333333333333)"><rect width="6" height="6"/></g>
<g transform="translate(360,120) scale(3.4333333333333)"><rect width="6" height="6"/></g>
<g transform="translate(380,120) scale(3.4333333333333)"><rect width="6" height="6"/></g>
<g transform="translate(400,120) scale(3.4333333333333)"><rect width="6" height="6"/></g>
<g transform="translate(440,120) scale(3.4333333333333)"><rect width="6" height="6"/></g>
<g transform="translate(460,120) scale(3.4333333333333)"><rect width="6" height="6"/></g>
<g transform="translate(480,120) scale(3.4333333333333)"><rect width="6" height="6"/></g>
<g transform="translate(500,120) scale(3.4333333333333)"><rect width="6" height="6"/></g>
<g transform="translate(520,120) scale(3.4333333333333)"><rect width="6" height="6"/></g>
<g transform="translate(540,120) scale(3.4333333333333)"><rect width="6" height="6"/></g>
<g transform="translate(560,120) scale(3.4333333333333)"><rect width="6" height="6"/></g>
<g transform="translate(600,120) scale(3.4333333333333)"><rect width="6" height="6"/></g>
<g transform="translate(620,120) scale(3.4333333333333)"><rect width="6" height="6"/></g>
<g transform="translate(640,120) scale(3.4333333333333)"><rect width="6" height="6"/></g>
<g transform="translate(680,120) scale(3.4333333333333)"><rect width="6" height="6"/></g>
<g transform="translate(720,120) scale(3.4333333333333)"><rect width="6" height="6"/></g>
<g transform="translate(740,120) scale(3.4333333333333)"><rect width="6" height="6"/></g>
<g transform="translate(760,120) scale(3.4333333333333)"><rect width="6" height="6"/></g>
<g transform="translate(200,140) scale(3.4333333333333)"><rect width="6" height="6"/></g>
<g transform="translate(220,140) scale(3.4333333333333)"><rect width="6" height="6"/></g>
<g transform="translate(240,140) scale(3.4333333333333)"><rect width="6" height="6"/></g>
<g transform="translate(320,140) scale(3.4333333333333)"><rect width="6" height="6"/></g>
<g transform="translate(340,140) scale(3.4333333333333)"><rect width="6" height="6"/></g>
<g transform="translate(360,140) scale(3.4333333333333)"><rect width="6" height="6"/></g>
<g transform="translate(380,140) scale(3.4333333333333)"><rect width="6" height="6"/></g>
<g transform="translate(400,140) scale(3.4333333333333)"><rect width="6" height="6"/></g>
<g transform="translate(440,140) scale(3.4333333333333)"><rect width="6" height="6"/></g>
<g transform="translate(520,140) scale(3.4333333333333)"><rect width="6" height="6"/></g>
<g transform="translate(600,140) scale(3.4333333333333)"><rect width="6" height="6"/></g>
<g transform="translate(660,140) scale(3.4333333333333)"><rect width="6" height="6"/></g>
<g transform="translate(680,140) scale(3.4333333333333)"><rect width="6" height="6"/></g>
<g transform="translate(200,160) scale(3.4333333333333)"><rect width="6" height="6"/></g>
<g transform="translate(240,160) scale(3.4333333333333)"><rect width="6" height="6"/></g>
<g transform="translate(280,160) scale(3.4333333333333)"><rect width="6" height="6"/></g>
<g transform="translate(320,160) scale(3.4333333333333)"><rect width="6" height="6"/></g>
<g transform="translate(360,160) scale(3.4333333333333)"><rect width="6" height="6"/></g>
<g transform="translate(400,160) scale(3.4333333333333)"><rect width="6" height="6"/></g>
<g transform="translate(440,160) scale(3.4333333333333)"><rect width="6" height="6"/></g>
<g transform="translate(480,160) scale(3.4333333333333)"><rect width="6" height="6"/></g>
<g transform="translate(520,160) scale(3.4333333333333)"><rect width="6" height="6"/></g>
<g transform="translate(560,160) scale(3.4333333333333)"><rect width="6" height="6"/></g>
<g transform="translate(600,160) scale(3.4333333333333)"><rect width="6" height="6"/></g>
<g transform="translate(640,160) scale(3.4333333333333)"><rect width="6" height="6"/></g>
<g transform="translate(680,160) scale(3.4333333333333)"><rect width="6" height="6"/></g>
<g transform="translate(720,160) scale(3.4333333333333)"><rect width="6" height="6"/></g>
<g transform="translate(760,160) scale(3.4333333333333)"><rect width="6" height="6"/></g>
<g transform="translate(220,180) scale(3.4333333333333)"><rect width="6" height="6"/></g>
<g transform="translate(240,180) scale(3.4333333333333)"><rect width="6" height="6"/></g>
<g transform="translate(280,180) scale(3.4333333333333)"><rect width="6" height="6"/></g>
<g transform="translate(360,180) scale(3.4333333333333)"><rect width="6" height="6"/></g>
<g transform="translate(400,180) scale(3.4333333333333)"><rect width="6" height="6"/></g>
<g transform="translate(440,180) scale(3.4333333333333)"><rect width="6" height="6"/></g>
<g transform="translate(520,180) scale(3.4333333333333)"><rect width="6" height="6"/></g>
<g transform="translate(540,180) scale(3.4333333333333)"><rect width="6" height="6"/></g>
<g transform="translate(580,180) scale(3.4333333333333)"><rect width="6" height="6"/></g>
<g transform="translate(600,180) scale(3.4333333333333)"><rect width="6" height="6"/></g>
<g transform="translate(680,180) scale(3.4333333333333)"><rect width="6" height="6"/></g>
<g transform="translate(700,180) scale(3.4333333333333)"><rect width="6" height="6"/></g>
<g transform="translate(720,180) scale(3.4333333333333)"><rect width="6" height="6"/></g>
<g transform="translate(60,200) scale(3.4333333333333)"><rect width="6" height="6"/></g>
<g transform="translate(80,200) scale(3.4333333333333)"><rect width="6" height="6"/></g>
<g transform="translate(100,200) scale(3.4333333333333)"><rect width="6" height="6"/></g>
<g transform="translate(120,200) scale(3.4333333333333)"><rect width="6" height="6"/></g>
<g transform="translate(140,200) scale(3.4333333333333)"><rect width="6" height="6"/></g>
<g transform="translate(160,200) scale(3.4333333333333)"><rect width="6" height="6"/></g>
<g transform="translate(180,200) scale(3.4333333333333)"><rect width="6" height="6"/></g>
<g transform="translate(220,200) scale(3.4333333333333)"><rect width="6" height="6"/></g>
<g transform="translate(240,200) scale(3.4333333333333)"><rect width="6" height="6"/></g>
<g transform="translate(280,200) scale(3.4333333333333)"><rect width="6" height="6"/></g>
<g transform="translate(300,200) scale(3.4333333333333)"><rect width="6" height="6"/></g>
<g transform="translate(320,200) scale(3.4333333333333)"><rect width="6" height="6"/></g>
<g transform="translate(340,200) scale(3.4333333333333)"><rect width="6" height="6"/></g>
<g transform="translate(360,200) scale(3.4333333333333)"><rect width="6" height="6"/></g>
<g transform="translate(380,200) scale(3.4333333333333)"><rect width="6" height="6"/></g>
<g transform="translate(440,200) scale(3.4333333333333)"><rect width="6" height="6"/></g>
<g transform="translate(460,200) scale(3.4333333333333)"><rect width="6" height="6"/></g>
<g transform="translate(480,200) scale(3.4333333333333)"><rect width="6" height="6"/></g>
<g transform="translate(500,200) scale(3.4333333333333)"><rect width="6" height="6"/></g>
<g transform="translate(520,200) scale(3.4333333333333)"><rect width="6" height="6"/></g>
<g transform="translate(540,200) scale(3.4333333333333)"><rect width="6" height="6"/></g>
<g transform="translate(620,200) scale(3.4333333333333)"><rect width="6" height="6"/></g>
<g transform="translate(640,200) scale(3.4333333333333)"><rect width="6" height="6"/></g>
<g transform="translate(660,200) scale(3.4333333333333)"><rect width="6" height="6"/></g>
<g transform="translate(700,200) scale(3.4333333333333)"><rect width="6" height="6"/></g>
<g transform="translate(820,200) scale(3.4333333333333)"><rect width="6" height="6"/></g>
<g transform="translate(840,200) scale(3.4333333333333)"><rect width="6" height="6"/></g>
<g transform="translate(920,200) scale(3.4333333333333)"><rect width="6" height="6"/></g>
<g transform="translate(100,220) scale(3.4333333333333)"><rect width="6" height="6"/></g>
<g transform="translate(180,220) scale(3.4333333333333)"><rect width="6" height="6"/></g>
<g transform="translate(200,220) scale(3.4333333333333)"><rect width="6" height="6"/></g>
<g transform="translate(280,220) scale(3.4333333333333)"><rect width="6" height="6"/></g>
<g transform="translate(320,220) scale(3.4333333333333)"><rect width="6" height="6"/></g>
<g transform="translate(340,220) scale(3.4333333333333)"><rect width="6" height="6"/></g>
<g transform="translate(400,220) scale(3.4333333333333)"><rect width="6" height="6"/></g>
<g transform="translate(440,220) scale(3.4333333333333)"><rect width="6" height="6"/></g>
<g transform="translate(460,220) scale(3.4333333333333)"><rect width="6" height="6"/></g>
<g transform="translate(480,220) scale(3.4333333333333)"><rect width="6" height="6"/></g>
<g transform="translate(500,220) scale(3.4333333333333)"><rect width="6" height="6"/></g>
<g transform="translate(520,220) scale(3.4333333333333)"><rect width="6" height="6"/></g>
<g transform="translate(540,220) scale(3.4333333333333)"><rect width="6" height="6"/></g>
<g transform="translate(580,220) scale(3.4333333333333)"><rect width="6" height="6"/></g>
<g transform="translate(600,220) scale(3.4333333333333)"><rect width="6" height="6"/></g>
<g transform="translate(620,220) scale(3.4333333333333)"><rect width="6" height="6"/></g>
<g transform="translate(640,220) scale(3.4333333333333)"><rect width="6" height="6"/></g>
<g transform="translate(660,220) scale(3.4333333333333)"><rect width="6" height="6"/></g>
<g transform="translate(740,220) scale(3.4333333333333)"><rect width="6" height="6"/></g>
<g transform="translate(760,220) scale(3.4333333333333)"><rect width="6" height="6"/></g>
<g transform="translate(780,220) scale(3.4333333333333)"><rect width="6" height="6"/></g>
<g transform="translate(820,220) scale(3.4333333333333)"><rect width="6" height="6"/></g>
<g transform="translate(920,220) scale(3.4333333333333)"><rect width="6" height="6"/></g>
<g transform="translate(60,240) scale(3.4333333333333)"><rect width="6" height="6"/></g>
<g transform="translate(120,240) scale(3.4333333333333)"><rect width="6" height="6"/></g>
<g transform="translate(160,240) scale(3.4333333333333)"><rect width="6" height="6"/></g>
<g transform="translate(180,240) scale(3.4333333333333)"><rect width="6" height="6"/></g>
<g transform="translate(220,240) scale(3.4333333333333)"><rect width="6" height="6"/></g>
<g transform="translate(240,240) scale(3.4333333333333)"><rect width="6" height="6"/></g>
<g transform="translate(280,240) scale(3.4333333333333)"><rect width="6" height="6"/></g>
<g transform="translate(320,240) scale(3.4333333333333)"><rect width="6" height="6"/></g>
<g transform="translate(340,240) scale(3.4333333333333)"><rect width="6" height="6"/></g>
<g transform="translate(360,240) scale(3.4333333333333)"><rect width="6" height="6"/></g>
<g transform="translate(380,240) scale(3.4333333333333)"><rect width="6" height="6"/></g>
<g transform="translate(400,240) scale(3.4333333333333)"><rect width="6" height="6"/></g>
<g transform="translate(460,240) scale(3.4333333333333)"><rect width="6" height="6"/></g>
<g transform="translate(480,240) scale(3.4333333333333)"><rect width="6" height="6"/></g>
<g transform="translate(500,240) scale(3.4333333333333)"><rect width="6" height="6"/></g>
<g transform="translate(540,240) scale(3.4333333333333)"><rect width="6" height="6"/></g>
<g transform="translate(560,240) scale(3.4333333333333)"><rect width="6" height="6"/></g>
<g transform="translate(700,240) scale(3.4333333333333)"><rect width="6" height="6"/></g>
<g transform="translate(720,240) scale(3.4333333333333)"><rect width="6" height="6"/></g>
<g transform="translate(740,240) scale(3.4333333333333)"><rect width="6" height="6"/></g>
<g transform="translate(780,240) scale(3.4333333333333)"><rect width="6" height="6"/></g>
<g transform="translate(800,240) scale(3.4333333333333)"><rect width="6" height="6"/></g>
<g transform="translate(860,240) scale(3.4333333333333)"><rect width="6" height="6"/></g>
<g transform="translate(880,240) scale(3.4333333333333)"><rect width="6" height="6"/></g>
<g transform="translate(60,260) scale(3.4333333333333)"><rect width="6" height="6"/></g>
<g transform="translate(140,260) scale(3.4333333333333)"><rect width="6" height="6"/></g>
<g transform="translate(180,260) scale(3.4333333333333)"><rect width="6" height="6"/></g>
<g transform="translate(220,260) scale(3.4333333333333)"><rect width="6" height="6"/></g>
<g transform="translate(280,260) scale(3.4333333333333)"><rect width="6" height="6"/></g>
<g transform="translate(320,260) scale(3.4333333333333)"><rect width="6" height="6"/></g>
<g transform="translate(440,260) scale(3.4333333333333)"><rect width="6" height="6"/></g>
<g transform="translate(540,260) scale(3.4333333333333)"><rect width="6" height="6"/></g>
<g transform="translate(560,260) scale(3.4333333333333)"><rect width="6" height="6"/></g>
<g transform="translate(600,260) scale(3.4333333333333)"><rect width="6" height="6"/></g>
<g transform="translate(640,260) scale(3.4333333333333)"><rect width="6" height="6"/></g>
<g transform="translate(680,260) scale(3.4333333333333)"><rect width="6" height="6"/></g>
<g transform="translate(720,260) scale(3.4333333333333)"><rect width="6" height="6"/></g>
<g transform="translate(740,260) scale(3.4333333333333)"><rect width="6" height="6"/></g>
<g transform="translate(760,260) scale(3.4333333333333)"><rect width="6" height="6"/></g>
<g transform="translate(840,260) scale(3.4333333333333)"><rect width="6" height="6"/></g>
<g transform="translate(860,260) scale(3.4333333333333)"><rect width="6" height="6"/></g>
<g transform="translate(880,260) scale(3.4333333333333)"><rect width="6" height="6"/></g>
<g transform="translate(40,280) scale(3.4333333333333)"><rect width="6" height="6"/></g>
<g transform="translate(60,280) scale(3.4333333333333)"><rect width="6" height="6"/></g>
<g transform="translate(80,280) scale(3.4333333333333)"><rect width="6" height="6"/></g>
<g transform="translate(140,280) scale(3.4333333333333)"><rect width="6" height="6"/></g>
<g transform="translate(160,280) scale(3.4333333333333)"><rect width="6" height="6"/></g>
<g transform="translate(240,280) scale(3.4333333333333)"><rect width="6" height="6"/></g>
<g transform="translate(280,280) scale(3.4333333333333)"><rect width="6" height="6"/></g>
<g transform="translate(300,280) scale(3.4333333333333)"><rect width="6" height="6"/></g>
<g transform="translate(320,280) scale(3.4333333333333)"><rect width="6" height="6"/></g>
<g transform="translate(360,280) scale(3.4333333333333)"><rect width="6" height="6"/></g>
<g transform="translate(400,280) scale(3.4333333333333)"><rect width="6" height="6"/></g>
<g transform="translate(420,280) scale(3.4333333333333)"><rect width="6" height="6"/></g>
<g transform="translate(440,280) scale(3.4333333333333)"><rect width="6" height="6"/></g>
<g transform="translate(460,280) scale(3.4333333333333)"><rect width="6" height="6"/></g>
<g transform="translate(480,280) scale(3.4333333333333)"><rect width="6" height="6"/></g>
<g transform="translate(540,280) scale(3.4333333333333)"><rect width="6" height="6"/></g>
<g transform="translate(560,280) scale(3.4333333333333)"><rect width="6" height="6"/></g>
<g transform="translate(660,280) scale(3.4333333333333)"><rect width="6" height="6"/></g>
<g transform="translate(720,280) scale(3.4333333333333)"><rect width="6" height="6"/></g>
<g transform="translate(740,280) scale(3.4333333333333)"><rect width="6" height="6"/></g>
<g transform="translate(920,280) scale(3.4333333333333)"><rect width="6" height="6"/></g>
<g transform="translate(40,300) scale(3.4333333333333)"><rect width="6" height="6"/></g>
<g transform="translate(60,300) scale(3.4333333333333)"><rect width="6" height="6"/></g>
<g transform="translate(140,300) scale(3.4333333333333)"><rect width="6" height="6"/></g>
<g transform="translate(180,300) scale(3.4333333333333)"><rect width="6" height="6"/></g>
<g transform="translate(200,300) scale(3.4333333333333)"><rect width="6" height="6"/></g>
<g transform="translate(280,300) scale(3.4333333333333)"><rect width="6" height="6"/></g>
<g transform="translate(300,300) scale(3.4333333333333)"><rect width="6" height="6"/></g>
<g transform="translate(340,300) scale(3.4333333333333)"><rect width="6" height="6"/></g>
<g transform="translate(380,300) scale(3.4333333333333)"><rect width="6" height="6"/></g>
<g transform="translate(400,300) scale(3.4333333333333)"><rect width="6" height="6"/></g>
<g transform="translate(420,300) scale(3.4333333333333)"><rect width="6" height="6"/></g>
<g transform="translate(440,300) scale(3.4333333333333)"><rect width="6" height="6"/></g>
<g transform="translate(480,300) scale(3.4333333333333)"><rect width="6" height="6"/></g>
<g transform="translate(520,300) scale(3.4333333333333)"><rect width="6" height="6"/></g>
<g transform="translate(540,300) scale(3.4333333333333)"><rect width="6" height="6"/></g>
<g transform="translate(640,300) scale(3.4333333333333)"><rect width="6" height="6"/></g>
<g transform="translate(660,300) scale(3.4333333333333)"><rect width="6" height="6"/></g>
<g transform="translate(700,300) scale(3.4333333333333)"><rect width="6" height="6"/></g>
<g transform="translate(740,300) scale(3.4333333333333)"><rect width="6" height="6"/></g>
<g transform="translate(760,300) scale(3.4333333333333)"><rect width="6" height="6"/></g>
<g transform="translate(780,300) scale(3.4333333333333)"><rect width="6" height="6"/></g>
<g transform="translate(840,300) scale(3.4333333333333)"><rect width="6" height="6"/></g>
<g transform="translate(860,300) scale(3.4333333333333)"><rect width="6" height="6"/></g>
<g transform="translate(920,300) scale(3.4333333333333)"><rect width="6" height="6"/></g>
<g transform="translate(40,320) scale(3.4333333333333)"><rect width="6" height="6"/></g>
<g transform="translate(60,320) scale(3.4333333333333)"><rect width="6" height="6"/></g>
<g transform="translate(80,320) scale(3.4333333333333)"><rect width="6" height="6"/></g>
<g transform="translate(100,320) scale(3.4333333333333)"><rect width="6" height="6"/></g>
<g transform="translate(120,320) scale(3.4333333333333)"><rect width="6" height="6"/></g>
<g transform="translate(140,320) scale(3.4333333333333)"><rect width="6" height="6"/></g>
<g transform="translate(160,320) scale(3.4333333333333)"><rect width="6" height="6"/></g>
<g transform="translate(180,320) scale(3.4333333333333)"><rect width="6" height="6"/></g>
<g transform="translate(200,320) scale(3.4333333333333)"><rect width="6" height="6"/></g>
<g transform="translate(220,320) scale(3.4333333333333)"><rect width="6" height="6"/></g>
<g transform="translate(260,320) scale(3.4333333333333)"><rect width="6" height="6"/></g>
<g transform="translate(300,320) scale(3.4333333333333)"><rect width="6" height="6"/></g>
<g transform="translate(320,320) scale(3.4333333333333)"><rect width="6" height="6"/></g>
<g transform="translate(380,320) scale(3.4333333333333)"><rect width="6" height="6"/></g>
<g transform="translate(440,320) scale(3.4333333333333)"><rect width="6" height="6"/></g>
<g transform="translate(480,320) scale(3.4333333333333)"><rect width="6" height="6"/></g>
<g transform="translate(520,320) scale(3.4333333333333)"><rect width="6" height="6"/></g>
<g transform="translate(560,320) scale(3.4333333333333)"><rect width="6" height="6"/></g>
<g transform="translate(580,320) scale(3.4333333333333)"><rect width="6" height="6"/></g>
<g transform="translate(660,320) scale(3.4333333333333)"><rect width="6" height="6"/></g>
<g transform="translate(700,320) scale(3.4333333333333)"><rect width="6" height="6"/></g>
<g transform="translate(740,320) scale(3.4333333333333)"><rect width="6" height="6"/></g>
<g transform="translate(760,320) scale(3.4333333333333)"><rect width="6" height="6"/></g>
<g transform="translate(780,320) scale(3.4333333333333)"><rect width="6" height="6"/></g>
<g transform="translate(800,320) scale(3.4333333333333)"><rect width="6" height="6"/></g>
<g transform="translate(880,320) scale(3.4333333333333)"><rect width="6" height="6"/></g>
<g transform="translate(900,320) scale(3.4333333333333)"><rect width="6" height="6"/></g>
<g transform="translate(60,340) scale(3.4333333333333)"><rect width="6" height="6"/></g>
<g transform="translate(80,340) scale(3.4333333333333)"><rect width="6" height="6"/></g>
<g transform="translate(140,340) scale(3.4333333333333)"><rect width="6" height="6"/></g>
<g transform="translate(240,340) scale(3.4333333333333)"><rect width="6" height="6"/></g>
<g transform="translate(280,340) scale(3.4333333333333)"><rect width="6" height="6"/></g>
<g transform="translate(300,340) scale(3.4333333333333)"><rect width="6" height="6"/></g>
<g transform="translate(360,340) scale(3.4333333333333)"><rect width="6" height="6"/></g>
<g transform="translate(380,340) scale(3.4333333333333)"><rect width="6" height="6"/></g>
<g transform="translate(400,340) scale(3.4333333333333)"><rect width="6" height="6"/></g>
<g transform="translate(460,340) scale(3.4333333333333)"><rect width="6" height="6"/></g>
<g transform="translate(500,340) scale(3.4333333333333)"><rect width="6" height="6"/></g>
<g transform="translate(520,340) scale(3.4333333333333)"><rect width="6" height="6"/></g>
<g transform="translate(540,340) scale(3.4333333333333)"><rect width="6" height="6"/></g>
<g transform="translate(560,340) scale(3.4333333333333)"><rect width="6" height="6"/></g>
<g transform="translate(600,340) scale(3.4333333333333)"><rect width="6" height="6"/></g>
<g transform="translate(620,340) scale(3.4333333333333)"><rect width="6" height="6"/></g>
<g transform="translate(640,340) scale(3.4333333333333)"><rect width="6" height="6"/></g>
<g transform="translate(680,340) scale(3.4333333333333)"><rect width="6" height="6"/></g>
<g transform="translate(700,340) scale(3.4333333333333)"><rect width="6" height="6"/></g>
<g transform="translate(720,340) scale(3.4333333333333)"><rect width="6" height="6"/></g>
<g transform="translate(800,340) scale(3.4333333333333)"><rect width="6" height="6"/></g>
<g transform="translate(820,340) scale(3.4333333333333)"><rect width="6" height="6"/></g>
<g transform="translate(840,340) scale(3.4333333333333)"><rect width="6" height="6"/></g>
<g transform="translate(860,340) scale(3.4333333333333)"><rect width="6" height="6"/></g>
<g transform="translate(880,340) scale(3.4333333333333)"><rect width="6" height="6"/></g>
<g transform="translate(900,340) scale(3.4333333333333)"><rect width="6" height="6"/></g>
<g transform="translate(40,360) scale(3.4333333333333)"><rect width="6" height="6"/></g>
<g transform="translate(80,360) scale(3.4333333333333)"><rect width="6" height="6"/></g>
<g transform="translate(100,360) scale(3.4333333333333)"><rect width="6" height="6"/></g>
<g transform="translate(120,360) scale(3.4333333333333)"><rect width="6" height="6"/></g>
<g transform="translate(140,360) scale(3.4333333333333)"><rect width="6" height="6"/></g>
<g transform="translate(160,360) scale(3.4333333333333)"><rect width="6" height="6"/></g>
<g transform="translate(220,360) scale(3.4333333333333)"><rect width="6" height="6"/></g>
<g transform="translate(260,360) scale(3.4333333333333)"><rect width="6" height="6"/></g>
<g transform="translate(280,360) scale(3.4333333333333)"><rect width="6" height="6"/></g>
<g transform="translate(320,360) scale(3.4333333333333)"><rect width="6" height="6"/></g>
<g transform="translate(360,360) scale(3.4333333333333)"><rect width="6" height="6"/></g>
<g transform="translate(400,360) scale(3.4333333333333)"><rect width="6" height="6"/></g>
<g transform="translate(440,360) scale(3.4333333333333)"><rect width="6" height="6"/></g>
<g transform="translate(460,360) scale(3.4333333333333)"><rect width="6" height="6"/></g>
<g transform="translate(480,360) scale(3.4333333333333)"><rect width="6" height="6"/></g>
<g transform="translate(540,360) scale(3.4333333333333)"><rect width="6" height="6"/></g>
<g transform="translate(620,360) scale(3.4333333333333)"><rect width="6" height="6"/></g>
<g transform="translate(660,360) scale(3.4333333333333)"><rect width="6" height="6"/></g>
<g transform="translate(700,360) scale(3.4333333333333)"><rect width="6" height="6"/></g>
<g transform="translate(720,360) scale(3.4333333333333)"><rect width="6" height="6"/></g>
<g transform="translate(740,360) scale(3.4333333333333)"><rect width="6" height="6"/></g>
<g transform="translate(780,360) scale(3.4333333333333)"><rect width="6" height="6"/></g>
<g transform="translate(800,360) scale(3.4333333333333)"><rect width="6" height="6"/></g>
<g transform="translate(860,360) scale(3.4333333333333)"><rect width="6" height="6"/></g>
<g transform="translate(900,360) scale(3.4333333333333)"><rect width="6" height="6"/></g>
<g transform="translate(920,360) scale(3.4333333333333)"><rect width="6" height="6"/></g>
<g transform="translate(100,380) scale(3.4333333333333)"><rect width="6" height="6"/></g>
<g transform="translate(120,380) scale(3.4333333333333)"><rect width="6" height="6"/></g>
<g transform="translate(180,380) scale(3.4333333333333)"><rect width="6" height="6"/></g>
<g transform="translate(260,380) scale(3.4333333333333)"><rect width="6" height="6"/></g>
<g transform="translate(280,380) scale(3.4333333333333)"><rect width="6" height="6"/></g>
<g transform="translate(340,380) scale(3.4333333333333)"><rect width="6" height="6"/></g>
<g transform="translate(360,380) scale(3.4333333333333)"><rect width="6" height="6"/></g>
<g transform="translate(380,380) scale(3.4333333333333)"><rect width="6" height="6"/></g>
<g transform="translate(400,380) scale(3.4333333333333)"><rect width="6" height="6"/></g>
<g transform="translate(440,380) scale(3.4333333333333)"><rect width="6" height="6"/></g>
<g transform="translate(540,380) scale(3.4333333333333)"><rect width="6" height="6"/></g>
<g transform="translate(580,380) scale(3.4333333333333)"><rect width="6" height="6"/></g>
<g transform="translate(620,380) scale(3.4333333333333)"><rect width="6" height="6"/></g>
<g transform="translate(640,380) scale(3.4333333333333)"><rect width="6" height="6"/></g>
<g transform="translate(660,380) scale(3.4333333333333)"><rect width="6" height="6"/></g>
<g transform="translate(700,380) scale(3.4333333333333)"><rect width="6" height="6"/></g>
<g transform="translate(760,380) scale(3.4333333333333)"><rect width="6" height="6"/></g>
<g transform="translate(820,380) scale(3.4333333333333)"><rect width="6" height="6"/></g>
<g transform="translate(920,380) scale(3.4333333333333)"><rect width="6" height="6"/></g>
<g transform="translate(40,400) scale(3.4333333333333)"><rect width="6" height="6"/></g>
<g transform="translate(80,400) scale(3.4333333333333)"><rect width="6" height="6"/></g>
<g transform="translate(160,400) scale(3.4333333333333)"><rect width="6" height="6"/></g>
<g transform="translate(220,400) scale(3.4333333333333)"><rect width="6" height="6"/></g>
<g transform="translate(260,400) scale(3.4333333333333)"><rect width="6" height="6"/></g>
<g transform="translate(280,400) scale(3.4333333333333)"><rect width="6" height="6"/></g>
<g transform="translate(320,400) scale(3.4333333333333)"><rect width="6" height="6"/></g>
<g transform="translate(340,400) scale(3.4333333333333)"><rect width="6" height="6"/></g>
<g transform="translate(380,400) scale(3.4333333333333)"><rect width="6" height="6"/></g>
<g transform="translate(400,400) scale(3.4333333333333)"><rect width="6" height="6"/></g>
<g transform="translate(420,400) scale(3.4333333333333)"><rect width="6" height="6"/></g>
<g transform="translate(460,400) scale(3.4333333333333)"><rect width="6" height="6"/></g>
<g transform="translate(520,400) scale(3.4333333333333)"><rect width="6" height="6"/></g>
<g transform="translate(540,400) scale(3.4333333333333)"><rect width="6" height="6"/></g>
<g transform="translate(560,400) scale(3.4333333333333)"><rect width="6" height="6"/></g>
<g transform="translate(580,400) scale(3.4333333333333)"><rect width="6" height="6"/></g>
<g transform="translate(660,400) scale(3.4333333333333)"><rect width="6" height="6"/></g>
<g transform="translate(680,400) scale(3.4333333333333)"><rect width="6" height="6"/></g>
<g transform="translate(700,400) scale(3.4333333333333)"><rect width="6" height="6"/></g>
<g transform="translate(720,400) scale(3.4333333333333)"><rect width="6" height="6"/></g>
<g transform="translate(740,400) scale(3.4333333333333)"><rect width="6" height="6"/></g>
<g transform="translate(800,400) scale(3.4333333333333)"><rect width="6" height="6"/></g>
<g transform="translate(820,400) scale(3.4333333333333)"><rect width="6" height="6"/></g>
<g transform="translate(860,400) scale(3.4333333333333)"><rect width="6" height="6"/></g>
<g transform="translate(900,400) scale(3.4333333333333)"><rect width="6" height="6"/></g>
<g transform="translate(40,420) scale(3.4333333333333)"><rect width="6" height="6"/></g>
<g transform="translate(120,420) scale(3.4333333333333)"><rect width="6" height="6"/></g>
<g transform="translate(140,420) scale(3.4333333333333)"><rect width="6" height="6"/></g>
<g transform="translate(180,420) scale(3.4333333333333)"><rect width="6" height="6"/></g>
<g transform="translate(240,420) scale(3.4333333333333)"><rect width="6" height="6"/></g>
<g transform="translate(300,420) scale(3.4333333333333)"><rect width="6" height="6"/></g>
<g transform="translate(380,420) scale(3.4333333333333)"><rect width="6" height="6"/></g>
<g transform="translate(420,420) scale(3.4333333333333)"><rect width="6" height="6"/></g>
<g transform="translate(440,420) scale(3.4333333333333)"><rect width="6" height="6"/></g>
<g transform="translate(460,420) scale(3.4333333333333)"><rect width="6" height="6"/></g>
<g transform="translate(500,420) scale(3.4333333333333)"><rect width="6" height="6"/></g>
<g transform="translate(640,420) scale(3.4333333333333)"><rect width="6" height="6"/></g>
<g transform="translate(660,420) scale(3.4333333333333)"><rect width="6" height="6"/></g>
<g transform="translate(680,420) scale(3.4333333333333)"><rect width="6" height="6"/></g>
<g transform="translate(760,420) scale(3.4333333333333)"><rect width="6" height="6"/></g>
<g transform="translate(780,420) scale(3.4333333333333)"><rect width="6" height="6"/></g>
<g transform="translate(800,420) scale(3.4333333333333)"><rect width="6" height="6"/></g>
<g transform="translate(820,420) scale(3.4333333333333)"><rect width="6" height="6"/></g>
<g transform="translate(840,420) scale(3.4333333333333)"><rect width="6" height="6"/></g>
<g transform="translate(880,420) scale(3.4333333333333)"><rect width="6" height="6"/></g>
<g transform="translate(920,420) scale(3.4333333333333)"><rect width="6" height="6"/></g>
<g transform="translate(40,440) scale(3.4333333333333)"><rect width="6" height="6"/></g>
<g transform="translate(60,440) scale(3.4333333333333)"><rect width="6" height="6"/></g>
<g transform="translate(120,440) scale(3.4333333333333)"><rect width="6" height="6"/></g>
<g transform="translate(140,440) scale(3.4333333333333)"><rect width="6" height="6"/></g>
<g transform="translate(160,440) scale(3.4333333333333)"><rect width="6" height="6"/></g>
<g transform="translate(180,440) scale(3.4333333333333)"><rect width="6" height="6"/></g>
<g transform="translate(200,440) scale(3.4333333333333)"><rect width="6" height="6"/></g>
<g transform="translate(220,440) scale(3.4333333333333)"><rect width="6" height="6"/></g>
<g transform="translate(260,440) scale(3.4333333333333)"><rect width="6" height="6"/></g>
<g transform="translate(340,440) scale(3.4333333333333)"><rect width="6" height="6"/></g>
<g transform="translate(380,440) scale(3.4333333333333)"><rect width="6" height="6"/></g>
<g transform="translate(400,440) scale(3.4333333333333)"><rect width="6" height="6"/></g>
<g transform="translate(440,440) scale(3.4333333333333)"><rect width="6" height="6"/></g>
<g transform="translate(460,440) scale(3.4333333333333)"><rect width="6" height="6"/></g>
<g transform="translate(480,440) scale(3.4333333333333)"><rect width="6" height="6"/></g>
<g transform="translate(500,440) scale(3.4333333333333)"><rect width="6" height="6"/></g>
<g transform="translate(520,440) scale(3.4333333333333)"><rect width="6" height="6"/></g>
<g transform="translate(540,440) scale(3.4333333333333)"><rect width="6" height="6"/></g>
<g transform="translate(580,440) scale(3.4333333333333)"><rect width="6" height="6"/></g>
<g transform="translate(620,440) scale(3.4333333333333)"><rect width="6" height="6"/></g>
<g transform="translate(640,440) scale(3.4333333333333)"><rect width="6" height="6"/></g>
<g transform="translate(660,440) scale(3.4333333333333)"><rect width="6" height="6"/></g>
<g transform="translate(700,440) scale(3.4333333333333)"><rect width="6" height="6"/></g>
<g transform="translate(760,440) scale(3.4333333333333)"><rect width="6" height="6"/></g>
<g transform="translate(780,440) scale(3.4333333333333)"><rect width="6" height="6"/></g>
<g transform="translate(800,440) scale(3.4333333333333)"><rect width="6" height="6"/></g>
<g transform="translate(820,440) scale(3.4333333333333)"><rect width="6" height="6"/></g>
<g transform="translate(840,440) scale(3.4333333333333)"><rect width="6" height="6"/></g>
<g transform="translate(900,440) scale(3.4333333333333)"><rect width="6" height="6"/></g>
<g transform="translate(920,440) scale(3.4333333333333)"><rect width="6" height="6"/></g>
<g transform="translate(40,460) scale(3.4333333333333)"><rect width="6" height="6"/></g>
<g transform="translate(80,460) scale(3.4333333333333)"><rect width="6" height="6"/></g>
<g transform="translate(100,460) scale(3.4333333333333)"><rect width="6" height="6"/></g>
<g transform="translate(120,460) scale(3.4333333333333)"><rect width="6" height="6"/></g>
<g transform="translate(200,460) scale(3.4333333333333)"><rect width="6" height="6"/></g>
<g transform="translate(260,460) scale(3.4333333333333)"><rect width="6" height="6"/></g>
<g transform="translate(340,460) scale(3.4333333333333)"><rect width="6" height="6"/></g>
<g transform="translate(360,460) scale(3.4333333333333)"><rect width="6" height="6"/></g>
<g transform="translate(400,460) scale(3.4333333333333)"><rect width="6" height="6"/></g>
<g transform="translate(420,460) scale(3.4333333333333)"><rect width="6" height="6"/></g>
<g transform="translate(440,460) scale(3.4333333333333)"><rect width="6" height="6"/></g>
<g transform="translate(520,460) scale(3.4333333333333)"><rect width="6" height="6"/></g>
<g transform="translate(640,460) scale(3.4333333333333)"><rect width="6" height="6"/></g>
<g transform="translate(660,460) scale(3.4333333333333)"><rect width="6" height="6"/></g>
<g transform="translate(680,460) scale(3.4333333333333)"><rect width="6" height="6"/></g>
<g transform="translate(740,460) scale(3.4333333333333)"><rect width="6" height="6"/></g>
<g transform="translate(760,460) scale(3.4333333333333)"><rect width="6" height="6"/></g>
<g transform="translate(840,460) scale(3.4333333333333)"><rect width="6" height="6"/></g>
<g transform="translate(920,460) scale(3.4333333333333)"><rect width="6" height="6"/></g>
<g transform="translate(60,480) scale(3.4333333333333)"><rect width="6" height="6"/></g>
<g transform="translate(80,480) scale(3.4333333333333)"><rect width="6" height="6"/></g>
<g transform="translate(100,480) scale(3.4333333333333)"><rect width="6" height="6"/></g>
<g transform="translate(120,480) scale(3.4333333333333)"><rect width="6" height="6"/></g>
<g transform="translate(160,480) scale(3.4333333333333)"><rect width="6" height="6"/></g>
<g transform="translate(200,480) scale(3.4333333333333)"><rect width="6" height="6"/></g>
<g transform="translate(220,480) scale(3.4333333333333)"><rect width="6" height="6"/></g>
<g transform="translate(260,480) scale(3.4333333333333)"><rect width="6" height="6"/></g>
<g transform="translate(400,480) scale(3.4333333333333)"><rect width="6" height="6"/></g>
<g transform="translate(420,480) scale(3.4333333333333)"><rect width="6" height="6"/></g>
<g transform="translate(440,480) scale(3.4333333333333)"><rect width="6" height="6"/></g>
<g transform="translate(480,480) scale(3.4333333333333)"><rect width="6" height="6"/></g>
<g transform="translate(520,480) scale(3.4333333333333)"><rect width="6" height="6"/></g>
<g transform="translate(540,480) scale(3.4333333333333)"><rect width="6" height="6"/></g>
<g transform="translate(580,480) scale(3.4333333333333)"><rect width="6" height="6"/></g>
<g transform="translate(620,480) scale(3.4333333333333)"><rect width="6" height="6"/></g>
<g transform="translate(640,480) scale(3.4333333333333)"><rect width="6" height="6"/></g>
<g transform="translate(660,480) scale(3.4333333333333)"><rect width="6" height="6"/></g>
<g transform="translate(680,480) scale(3.4333333333333)"><rect width="6" height="6"/></g>
<g transform="translate(700,480) scale(3.4333333333333)"><rect width="6" height="6"/></g>
<g transform="translate(720,480) scale(3.4333333333333)"><rect width="6" height="6"/></g>
<g transform="translate(760,480) scale(3.4333333333333)"><rect width="6" height="6"/></g>
<g transform="translate(800,480) scale(3.4333333333333)"><rect width="6" height="6"/></g>
<g transform="translate(840,480) scale(3.4333333333333)"><rect width="6" height="6"/></g>
<g transform="translate(880,480) scale(3.4333333333333)"><rect width="6" height="6"/></g>
<g transform="translate(900,480) scale(3.4333333333333)"><rect width="6" height="6"/></g>
<g transform="translate(40,500) scale(3.4333333333333)"><rect width="6" height="6"/></g>
<g transform="translate(100,500) scale(3.4333333333333)"><rect width="6" height="6"/></g>
<g transform="translate(120,500) scale(3.4333333333333)"><rect width="6" height="6"/></g>
<g transform="translate(200,500) scale(3.4333333333333)"><rect width="6" height="6"/></g>
<g transform="translate(220,500) scale(3.4333333333333)"><rect width="6" height="6"/></g>
<g transform="translate(260,500) scale(3.4333333333333)"><rect width="6" height="6"/></g>
<g transform="translate(300,500) scale(3.4333333333333)"><rect width="6" height="6"/></g>
<g transform="translate(340,500) scale(3.4333333333333)"><rect width="6" height="6"/></g>
<g transform="translate(380,500) scale(3.4333333333333)"><rect width="6" height="6"/></g>
<g transform="translate(400,500) scale(3.4333333333333)"><rect width="6" height="6"/></g>
<g transform="translate(420,500) scale(3.4333333333333)"><rect width="6" height="6"/></g>
<g transform="translate(440,500) scale(3.4333333333333)"><rect width="6" height="6"/></g>
<g transform="translate(520,500) scale(3.4333333333333)"><rect width="6" height="6"/></g>
<g transform="translate(540,500) scale(3.4333333333333)"><rect width="6" height="6"/></g>
<g transform="translate(580,500) scale(3.4333333333333)"><rect width="6" height="6"/></g>
<g transform="translate(600,500) scale(3.4333333333333)"><rect width="6" height="6"/></g>
<g transform="translate(620,500) scale(3.4333333333333)"><rect width="6" height="6"/></g>
<g transform="translate(640,500) scale(3.4333333333333)"><rect width="6" height="6"/></g>
<g transform="translate(680,500) scale(3.4333333333333)"><rect width="6" height="6"/></g>
<g transform="translate(720,500) scale(3.4333333333333)"><rect width="6" height="6"/></g>
<g transform="translate(760,500) scale(3.4333333333333)"><rect width="6" height="6"/></g>
<g transform="translate(840,500) scale(3.4333333333333)"><rect width="6" height="6"/></g>
<g transform="translate(860,500) scale(3.4333333333333)"><rect width="6" height="6"/></g>
<g transform="translate(880,500) scale(3.4333333333333)"><rect width="6" height="6"/></g>
<g transform="translate(900,500) scale(3.4333333333333)"><rect width="6" height="6"/></g>
<g transform="translate(40,520) scale(3.4333333333333)"><rect width="6" height="6"/></g>
<g transform="translate(60,520) scale(3.4333333333333)"><rect width="6" height="6"/></g>
<g transform="translate(100,520) scale(3.4333333333333)"><rect width="6" height="6"/></g>
<g transform="translate(120,520) scale(3.4333333333333)"><rect width="6" height="6"/></g>
<g transform="translate(140,520) scale(3.4333333333333)"><rect width="6" height="6"/></g>
<g transform="translate(160,520) scale(3.4333333333333)"><rect width="6" height="6"/></g>
<g transform="translate(180,520) scale(3.4333333333333)"><rect width="6" height="6"/></g>
<g transform="translate(200,520) scale(3.4333333333333)"><rect width="6" height="6"/></g>
<g transform="translate(220,520) scale(3.4333333333333)"><rect width="6" height="6"/></g>
<g transform="translate(280,520) scale(3.4333333333333)"><rect width="6" height="6"/></g>
<g transform="translate(300,520) scale(3.4333333333333)"><rect width="6" height="6"/></g>
<g transform="translate(340,520) scale(3.4333333333333)"><rect width="6" height="6"/></g>
<g transform="translate(360,520) scale(3.4333333333333)"><rect width="6" height="6"/></g>
<g transform="translate(380,520) scale(3.4333333333333)"><rect width="6" height="6"/></g>
<g transform="translate(420,520) scale(3.4333333333333)"><rect width="6" height="6"/></g>
<g transform="translate(440,520) scale(3.4333333333333)"><rect width="6" height="6"/></g>
<g transform="translate(460,520) scale(3.4333333333333)"><rect width="6" height="6"/></g>
<g transform="translate(480,520) scale(3.4333333333333)"><rect width="6" height="6"/></g>
<g transform="translate(500,520) scale(3.4333333333333)"><rect width="6" height="6"/></g>
<g transform="translate(520,520) scale(3.4333333333333)"><rect width="6" height="6"/></g>
<g transform="translate(560,520) scale(3.4333333333333)"><rect width="6" height="6"/></g>
<g transform="translate(640,520) scale(3.4333333333333)"><rect width="6" height="6"/></g>
<g transform="translate(660,520) scale(3.4333333333333)"><rect width="6" height="6"/></g>
<g transform="translate(720,520) scale(3.4333333333333)"><rect width="6" height="6"/></g>
<g transform="translate(740,520) scale(3.4333333333333)"><rect width="6" height="6"/></g>
<g transform="translate(760,520) scale(3.4333333333333)"><rect width="6" height="6"/></g>
<g transform="translate(780,520) scale(3.4333333333333)"><rect width="6" height="6"/></g>
<g transform="translate(800,520) scale(3.4333333333333)"><rect width="6" height="6"/></g>
<g transform="translate(820,520) scale(3.4333333333333)"><rect width="6" height="6"/></g>
<g transform="translate(840,520) scale(3.4333333333333)"><rect width="6" height="6"/></g>
<g transform="translate(860,520) scale(3.4333333333333)"><rect width="6" height="6"/></g>
<g transform="translate(900,520) scale(3.4333333333333)"><rect width="6" height="6"/></g>
<g transform="translate(240,540) scale(3.4333333333333)"><rect width="6" height="6"/></g>
<g transform="translate(340,540) scale(3.4333333333333)"><rect width="6" height="6"/></g>
<g transform="translate(360,540) scale(3.4333333333333)"><rect width="6" height="6"/></g>
<g transform="translate(380,540) scale(3.4333333333333)"><rect width="6" height="6"/></g>
<g transform="translate(420,540) scale(3.4333333333333)"><rect width="6" height="6"/></g>
<g transform="translate(460,540) scale(3.4333333333333)"><rect width="6" height="6"/></g>
<g transform="translate(480,540) scale(3.4333333333333)"><rect width="6" height="6"/></g>
<g transform="translate(520,540) scale(3.4333333333333)"><rect width="6" height="6"/></g>
<g transform="translate(560,540) scale(3.4333333333333)"><rect width="6" height="6"/></g>
<g transform="translate(580,540) scale(3.4333333333333)"><rect width="6" height="6"/></g>
<g transform="translate(600,540) scale(3.4333333333333)"><rect width="6" height="6"/></g>
<g transform="translate(620,540) scale(3.4333333333333)"><rect width="6" height="6"/></g>
<g transform="translate(640,540) scale(3.4333333333333)"><rect width="6" height="6"/></g>
<g transform="translate(660,540) scale(3.4333333333333)"><rect width="6" height="6"/></g>
<g transform="translate(680,540) scale(3.4333333333333)"><rect width="6" height="6"/></g>
<g transform="translate(740,540) scale(3.4333333333333)"><rect width="6" height="6"/></g>
<g transform="translate(800,540) scale(3.4333333333333)"><rect width="6" height="6"/></g>
<g transform="translate(820,540) scale(3.4333333333333)"><rect width="6" height="6"/></g>
<g transform="translate(920,540) scale(3.4333333333333)"><rect width="6" height="6"/></g>
<g transform="translate(40,560) scale(3.4333333333333)"><rect width="6" height="6"/></g>
<g transform="translate(60,560) scale(3.4333333333333)"><rect width="6" height="6"/></g>
<g transform="translate(80,560) scale(3.4333333333333)"><rect width="6" height="6"/></g>
<g transform="translate(160,560) scale(3.4333333333333)"><rect width="6" height="6"/></g>
<g transform="translate(200,560) scale(3.4333333333333)"><rect width="6" height="6"/></g>
<g transform="translate(220,560) scale(3.4333333333333)"><rect width="6" height="6"/></g>
<g transform="translate(260,560) scale(3.4333333333333)"><rect width="6" height="6"/></g>
<g transform="translate(280,560) scale(3.4333333333333)"><rect width="6" height="6"/></g>
<g transform="translate(300,560) scale(3.4333333333333)"><rect width="6" height="6"/></g>
<g transform="translate(320,560) scale(3.4333333333333)"><rect width="6" height="6"/></g>
<g transform="translate(360,560) scale(3.4333333333333)"><rect width="6" height="6"/></g>
<g transform="translate(440,560) scale(3.4333333333333)"><rect width="6" height="6"/></g>
<g transform="translate(480,560) scale(3.4333333333333)"><rect width="6" height="6"/></g>
<g transform="translate(520,560) scale(3.4333333333333)"><rect width="6" height="6"/></g>
<g transform="translate(560,560) scale(3.4333333333333)"><rect width="6" height="6"/></g>
<g transform="translate(580,560) scale(3.4333333333333)"><rect width="6" height="6"/></g>
<g transform="translate(620,560) scale(3.4333333333333)"><rect width="6" height="6"/></g>
<g transform="translate(660,560) scale(3.4333333333333)"><rect width="6" height="6"/></g>
<g transform="translate(680,560) scale(3.4333333333333)"><rect width="6" height="6"/></g>
<g transform="translate(720,560) scale(3.4333333333333)"><rect width="6" height="6"/></g>
<g transform="translate(740,560) scale(3.4333333333333)"><rect width="6" height="6"/></g>
<g transform="translate(760,560) scale(3.4333333333333)"><rect width="6" height="6"/></g>
<g transform="translate(780,560) scale(3.4333333333333)"><rect width="6" height="6"/></g>
<g transform="translate(860,560) scale(3.4333333333333)"><rect width="6" height="6"/></g>
<g transform="translate(880,560) scale(3.4333333333333)"><rect width="6" height="6"/></g>
<g transform="translate(900,560) scale(3.4333333333333)"><rect width="6" height="6"/></g>
<g transform="translate(60,580) scale(3.4333333333333)"><rect width="6" height="6"/></g>
<g transform="translate(80,580) scale(3.4333333333333)"><rect width="6" height="6"/></g>
<g transform="translate(120,580) scale(3.4333333333333)"><rect width="6" height="6"/></g>
<g transform="translate(180,580) scale(3.4333333333333)"><rect width="6" height="6"/></g>
<g transform="translate(240,580) scale(3.4333333333333)"><rect width="6" height="6"/></g>
<g transform="translate(260,580) scale(3.4333333333333)"><rect width="6" height="6"/></g>
<g transform="translate(280,580) scale(3.4333333333333)"><rect width="6" height="6"/></g>
<g transform="translate(300,580) scale(3.4333333333333)"><rect width="6" height="6"/></g>
<g transform="translate(340,580) scale(3.4333333333333)"><rect width="6" height="6"/></g>
<g transform="translate(400,580) scale(3.4333333333333)"><rect width="6" height="6"/></g>
<g transform="translate(420,580) scale(3.4333333333333)"><rect width="6" height="6"/></g>
<g transform="translate(460,580) scale(3.4333333333333)"><rect width="6" height="6"/></g>
<g transform="translate(480,580) scale(3.4333333333333)"><rect width="6" height="6"/></g>
<g transform="translate(540,580) scale(3.4333333333333)"><rect width="6" height="6"/></g>
<g transform="translate(560,580) scale(3.4333333333333)"><rect width="6" height="6"/></g>
<g transform="translate(580,580) scale(3.4333333333333)"><rect width="6" height="6"/></g>
<g transform="translate(600,580) scale(3.4333333333333)"><rect width="6" height="6"/></g>
<g transform="translate(640,580) scale(3.4333333333333)"><rect width="6" height="6"/></g>
<g transform="translate(660,580) scale(3.4333333333333)"><rect width="6" height="6"/></g>
<g transform="translate(740,580) scale(3.4333333333333)"><rect width="6" height="6"/></g>
<g transform="translate(800,580) scale(3.4333333333333)"><rect width="6" height="6"/></g>
<g transform="translate(820,580) scale(3.4333333333333)"><rect width="6" height="6"/></g>
<g transform="translate(840,580) scale(3.4333333333333)"><rect width="6" height="6"/></g>
<g transform="translate(860,580) scale(3.4333333333333)"><rect width="6" height="6"/></g>
<g transform="translate(880,580) scale(3.4333333333333)"><rect width="6" height="6"/></g>
<g transform="translate(900,580) scale(3.4333333333333)"><rect width="6" height="6"/></g>
<g transform="translate(80,600) scale(3.4333333333333)"><rect width="6" height="6"/></g>
<g transform="translate(100,600) scale(3.4333333333333)"><rect width="6" height="6"/></g>
<g transform="translate(160,600) scale(3.4333333333333)"><rect width="6" height="6"/></g>
<g transform="translate(220,600) scale(3.4333333333333)"><rect width="6" height="6"/></g>
<g transform="translate(360,600) scale(3.4333333333333)"><rect width="6" height="6"/></g>
<g transform="translate(380,600) scale(3.4333333333333)"><rect width="6" height="6"/></g>
<g transform="translate(420,600) scale(3.4333333333333)"><rect width="6" height="6"/></g>
<g transform="translate(440,600) scale(3.4333333333333)"><rect width="6" height="6"/></g>
<g transform="translate(540,600) scale(3.4333333333333)"><rect width="6" height="6"/></g>
<g transform="translate(560,600) scale(3.4333333333333)"><rect width="6" height="6"/></g>
<g transform="translate(620,600) scale(3.4333333333333)"><rect width="6" height="6"/></g>
<g transform="translate(640,600) scale(3.4333333333333)"><rect width="6" height="6"/></g>
<g transform="translate(700,600) scale(3.4333333333333)"><rect width="6" height="6"/></g>
<g transform="translate(760,600) scale(3.4333333333333)"><rect width="6" height="6"/></g>
<g transform="translate(800,600) scale(3.4333333333333)"><rect width="6" height="6"/></g>
<g transform="translate(820,600) scale(3.4333333333333)"><rect width="6" height="6"/></g>
<g transform="translate(840,600) scale(3.4333333333333)"><rect width="6" height="6"/></g>
<g transform="translate(920,600) scale(3.4333333333333)"><rect width="6" height="6"/></g>
<g transform="translate(60,620) scale(3.4333333333333)"><rect width="6" height="6"/></g>
<g transform="translate(100,620) scale(3.4333333333333)"><rect width="6" height="6"/></g>
<g transform="translate(120,620) scale(3.4333333333333)"><rect width="6" height="6"/></g>
<g transform="translate(140,620) scale(3.4333333333333)"><rect width="6" height="6"/></g>
<g transform="translate(180,620) scale(3.4333333333333)"><rect width="6" height="6"/></g>
<g transform="translate(220,620) scale(3.4333333333333)"><rect width="6" height="6"/></g>
<g transform="translate(240,620) scale(3.4333333333333)"><rect width="6" height="6"/></g>
<g transform="translate(260,620) scale(3.4333333333333)"><rect width="6" height="6"/></g>
<g transform="translate(280,620) scale(3.4333333333333)"><rect width="6" height="6"/></g>
<g transform="translate(340,620) scale(3.4333333333333)"><rect width="6" height="6"/></g>
<g transform="translate(420,620) scale(3.4333333333333)"><rect width="6" height="6"/></g>
<g transform="translate(440,620) scale(3.4333333333333)"><rect width="6" height="6"/></g>
<g transform="translate(500,620) scale(3.4333333333333)"><rect width="6" height="6"/></g>
<g transform="translate(540,620) scale(3.4333333333333)"><rect width="6" height="6"/></g>
<g transform="translate(620,620) scale(3.4333333333333)"><rect width="6" height="6"/></g>
<g transform="translate(640,620) scale(3.4333333333333)"><rect width="6" height="6"/></g>
<g transform="translate(660,620) scale(3.4333333333333)"><rect width="6" height="6"/></g>
<g transform="translate(780,620) scale(3.4333333333333)"><rect width="6" height="6"/></g>
<g transform="translate(860,620) scale(3.4333333333333)"><rect width="6" height="6"/></g>
<g transform="translate(920,620) scale(3.4333333333333)"><rect width="6" height="6"/></g>
<g transform="translate(60,640) scale(3.4333333333333)"><rect width="6" height="6"/></g>
<g transform="translate(120,640) scale(3.4333333333333)"><rect width="6" height="6"/></g>
<g transform="translate(140,640) scale(3.4333333333333)"><rect width="6" height="6"/></g>
<g transform="translate(160,640) scale(3.4333333333333)"><rect width="6" height="6"/></g>
<g transform="translate(180,640) scale(3.4333333333333)"><rect width="6" height="6"/></g>
<g transform="translate(220,640) scale(3.4333333333333)"><rect width="6" height="6"/></g>
<g transform="translate(280,640) scale(3.4333333333333)"><rect width="6" height="6"/></g>
<g transform="translate(320,640) scale(3.4333333333333)"><rect width="6" height="6"/></g>
<g transform="translate(340,640) scale(3.4333333333333)"><rect width="6" height="6"/></g>
<g transform="translate(360,640) scale(3.4333333333333)"><rect width="6" height="6"/></g>
<g transform="translate(380,640) scale(3.4333333333333)"><rect width="6" height="6"/></g>
<g transform="translate(420,640) scale(3.4333333333333)"><rect width="6" height="6"/></g>
<g transform="translate(480,640) scale(3.4333333333333)"><rect width="6" height="6"/></g>
<g transform="translate(500,640) scale(3.4333333333333)"><rect width="6" height="6"/></g>
<g transform="translate(520,640) scale(3.4333333333333)"><rect width="6" height="6"/></g>
<g transform="translate(560,640) scale(3.4333333333333)"><rect width="6" height="6"/></g>
<g transform="translate(580,640) scale(3.4333333333333)"><rect width="6" height="6"/></g>
<g transform="translate(600,640) scale(3.4333333333333)"><rect width="6" height="6"/></g>
<g transform="translate(700,640) scale(3.4333333333333)"><rect width="6" height="6"/></g>
<g transform="translate(720,640) scale(3.4333333333333)"><rect width="6" height="6"/></g>
<g transform="translate(760,640) scale(3.4333333333333)"><rect width="6" height="6"/></g>
<g transform="translate(780,640) scale(3.4333333333333)"><rect width="6" height="6"/></g>
<g transform="translate(860,640) scale(3.4333333333333)"><rect width="6" height="6"/></g>
<g transform="translate(880,640) scale(3.4333333333333)"><rect width="6" height="6"/></g>
<g transform="translate(900,640) scale(3.4333333333333)"><rect width="6" height="6"/></g>
<g transform="translate(80,660) scale(3.4333333333333)"><rect width="6" height="6"/></g>
<g transform="translate(220,660) scale(3.4333333333333)"><rect width="6" height="6"/></g>
<g transform="translate(240,660) scale(3.4333333333333)"><rect width="6" height="6"/></g>
<g transform="translate(380,660) scale(3.4333333333333)"><rect width="6" height="6"/></g>
<g transform="translate(420,660) scale(3.4333333333333)"><rect width="6" height="6"/></g>
<g transform="translate(500,660) scale(3.4333333333333)"><rect width="6" height="6"/></g>
<g transform="translate(600,660) scale(3.4333333333333)"><rect width="6" height="6"/></g>
<g transform="translate(620,660) scale(3.4333333333333)"><rect width="6" height="6"/></g>
<g transform="translate(680,660) scale(3.4333333333333)"><rect width="6" height="6"/></g>
<g transform="translate(720,660) scale(3.4333333333333)"><rect width="6" height="6"/></g>
<g transform="translate(740,660) scale(3.4333333333333)"><rect width="6" height="6"/></g>
<g transform="translate(780,660) scale(3.4333333333333)"><rect width="6" height="6"/></g>
<g transform="translate(800,660) scale(3.4333333333333)"><rect width="6" height="6"/></g>
<g transform="translate(860,660) scale(3.4333333333333)"><rect width="6" height="6"/></g>
<g transform="translate(880,660) scale(3.4333333333333)"><rect width="6" height="6"/></g>
<g transform="translate(920,660) scale(3.4333333333333)"><rect width="6" height="6"/></g>
<g transform="translate(40,680) scale(3.4333333333333)"><rect width="6" height="6"/></g>
<g transform="translate(60,680) scale(3.4333333333333)"><rect width="6" height="6"/></g>
<g transform="translate(80,680) scale(3.4333333333333)"><rect width="6" height="6"/></g>
<g transform="translate(120,680) scale(3.4333333333333)"><rect width="6" height="6"/></g>
<g transform="translate(140,680) scale(3.4333333333333)"><rect width="6" height="6"/></g>
<g transform="translate(160,680) scale(3.4333333333333)"><rect width="6" height="6"/></g>
<g transform="translate(180,680) scale(3.4333333333333)"><rect width="6" height="6"/></g>
<g transform="translate(220,680) scale(3.4333333333333)"><rect width="6" height="6"/></g>
<g transform="translate(240,680) scale(3.4333333333333)"><rect width="6" height="6"/></g>
<g transform="translate(280,680) scale(3.4333333333333)"><rect width="6" height="6"/></g>
<g transform="translate(380,680) scale(3.4333333333333)"><rect width="6" height="6"/></g>
<g transform="translate(400,680) scale(3.4333333333333)"><rect width="6" height="6"/></g>
<g transform="translate(480,680) scale(3.4333333333333)"><rect width="6" height="6"/></g>
<g transform="translate(500,680) scale(3.4333333333333)"><rect width="6" height="6"/></g>
<g transform="translate(520,680) scale(3.4333333333333)"><rect width="6" height="6"/></g>
<g transform="translate(540,680) scale(3.4333333333333)"><rect width="6" height="6"/></g>
<g transform="translate(560,680) scale(3.4333333333333)"><rect width="6" height="6"/></g>
<g transform="translate(660,680) scale(3.4333333333333)"><rect width="6" height="6"/></g>
<g transform="translate(720,680) scale(3.4333333333333)"><rect width="6" height="6"/></g>
<g transform="translate(780,680) scale(3.4333333333333)"><rect width="6" height="6"/></g>
<g transform="translate(840,680) scale(3.4333333333333)"><rect width="6" height="6"/></g>
<g transform="translate(860,680) scale(3.4333333333333)"><rect width="6" height="6"/></g>
<g transform="translate(180,700) scale(3.4333333333333)"><rect width="6" height="6"/></g>
<g transform="translate(280,700) scale(3.4333333333333)"><rect width="6" height="6"/></g>
<g transform="translate(360,700) scale(3.4333333333333)"><rect width="6" height="6"/></g>
<g transform="translate(400,700) scale(3.4333333333333)"><rect width="6" height="6"/></g>
<g transform="translate(440,700) scale(3.4333333333333)"><rect width="6" height="6"/></g>
<g transform="translate(460,700) scale(3.4333333333333)"><rect width="6" height="6"/></g>
<g transform="translate(480,700) scale(3.4333333333333)"><rect width="6" height="6"/></g>
<g transform="translate(520,700) scale(3.4333333333333)"><rect width="6" height="6"/></g>
<g transform="translate(560,700) scale(3.4333333333333)"><rect width="6" height="6"/></g>
<g transform="translate(640,700) scale(3.4333333333333)"><rect width="6" height="6"/></g>
<g transform="translate(680,700) scale(3.4333333333333)"><rect width="6" height="6"/></g>
<g transform="translate(740,700) scale(3.4333333333333)"><rect width="6" height="6"/></g>
<g transform="translate(800,700) scale(3.4333333333333)"><rect width="6" height="6"/></g>
<g transform="translate(860,700) scale(3.4333333333333)"><rect width="6" height="6"/></g>
<g transform="translate(880,700) scale(3.4333333333333)"><rect width="6" height="6"/></g>
<g transform="translate(920,700) scale(3.4333333333333)"><rect width="6" height="6"/></g>
<g transform="translate(120,720) scale(3.4333333333333)"><rect width="6" height="6"/></g>
<g transform="translate(160,720) scale(3.4333333333333)"><rect width="6" height="6"/></g>
<g transform="translate(220,720) scale(3.4333333333333)"><rect width="6" height="6"/></g>
<g transform="translate(300,720) scale(3.4333333333333)"><rect width="6" height="6"/></g>
<g transform="translate(320,720) scale(3.4333333333333)"><rect width="6" height="6"/></g>
<g transform="translate(360,720) scale(3.4333333333333)"><rect width="6" height="6"/></g>
<g transform="translate(380,720) scale(3.4333333333333)"><rect width="6" height="6"/></g>
<g transform="translate(460,720) scale(3.4333333333333)"><rect width="6" height="6"/></g>
<g transform="translate(500,720) scale(3.4333333333333)"><rect width="6" height="6"/></g>
<g transform="translate(520,720) scale(3.4333333333333)"><rect width="6" height="6"/></g>
<g transform="translate(540,720) scale(3.4333333333333)"><rect width="6" height="6"/></g>
<g transform="translate(560,720) scale(3.4333333333333)"><rect width="6" height="6"/></g>
<g transform="translate(600,720) scale(3.4333333333333)"><rect width="6" height="6"/></g>
<g transform="translate(720,720) scale(3.4333333333333)"><rect width="6" height="6"/></g>
<g transform="translate(760,720) scale(3.4333333333333)"><rect width="6" height="6"/></g>
<g transform="translate(780,720) scale(3.4333333333333)"><rect width="6" height="6"/></g>
<g transform="translate(820,720) scale(3.4333333333333)"><rect width="6" height="6"/></g>
<g transform="translate(900,720) scale(3.4333333333333)"><rect width="6" height="6"/></g>
<g transform="translate(60,740) scale(3.4333333333333)"><rect width="6" height="6"/></g>
<g transform="translate(80,740) scale(3.4333333333333)"><rect width="6" height="6"/></g>
<g transform="translate(100,740) scale(3.4333333333333)"><rect width="6" height="6"/></g>
<g transform="translate(120,740) scale(3.4333333333333)"><rect width="6" height="6"/></g>
<g transform="translate(200,740) scale(3.4333333333333)"><rect width="6" height="6"/></g>
<g transform="translate(260,740) scale(3.4333333333333)"><rect width="6" height="6"/></g>
<g transform="translate(320,740) scale(3.4333333333333)"><rect width="6" height="6"/></g>
<g transform="translate(380,740) scale(3.4333333333333)"><rect width="6" height="6"/></g>
<g transform="translate(400,740) scale(3.4333333333333)"><rect width="6" height="6"/></g>
<g transform="translate(420,740) scale(3.4333333333333)"><rect width="6" height="6"/></g>
<g transform="translate(480,740) scale(3.4333333333333)"><rect width="6" height="6"/></g>
<g transform="translate(540,740) scale(3.4333333333333)"><rect width="6" height="6"/></g>
<g transform="translate(580,740) scale(3.4333333333333)"><rect width="6" height="6"/></g>
<g transform="translate(600,740) scale(3.4333333333333)"><rect width="6" height="6"/></g>
<g transform="translate(620,740) scale(3.4333333333333)"><rect width="6" height="6"/></g>
<g transform="translate(660,740) scale(3.4333333333333)"><rect width="6" height="6"/></g>
<g transform="translate(680,740) scale(3.4333333333333)"><rect width="6" height="6"/></g>
<g transform="translate(720,740) scale(3.4333333333333)"><rect width="6" height="6"/></g>
<g transform="translate(740,740) scale(3.4333333333333)"><rect width="6" height="6"/></g>
<g transform="translate(800,740) scale(3.4333333333333)"><rect width="6" height="6"/></g>
<g transform="translate(840,740) scale(3.4333333333333)"><rect width="6" height="6"/></g>
<g transform="translate(860,740) scale(3.4333333333333)"><rect width="6" height="6"/></g>
<g transform="translate(880,740) scale(3.4333333333333)"><rect width="6" height="6"/></g>
<g transform="translate(920,740) scale(3.4333333333333)"><rect width="6" height="6"/></g>
<g transform="translate(40,760) scale(3.4333333333333)"><rect width="6" height="6"/></g>
<g transform="translate(100,760) scale(3.4333333333333)"><rect width="6" height="6"/></g>
<g transform="translate(120,760) scale(3.4333333333333)"><rect width="6" height="6"/></g>
<g transform="translate(160,760) scale(3.4333333333333)"><rect width="6" height="6"/></g>
<g transform="translate(180,760) scale(3.4333333333333)"><rect width="6" height="6"/></g>
<g transform="translate(200,760) scale(3.4333333333333)"><rect width="6" height="6"/></g>
<g transform="translate(220,760) scale(3.4333333333333)"><rect width="6" height="6"/></g>
<g transform="translate(280,760) scale(3.4333333333333)"><rect width="6" height="6"/></g>
<g transform="translate(300,760) scale(3.4333333333333)"><rect width="6" height="6"/></g>
<g transform="translate(320,760) scale(3.4333333333333)"><rect width="6" height="6"/></g>
<g transform="translate(400,760) scale(3.4333333333333)"><rect width="6" height="6"/></g>
<g transform="translate(440,760) scale(3.4333333333333)"><rect width="6" height="6"/></g>
<g transform="translate(460,760) scale(3.4333333333333)"><rect width="6" height="6"/></g>
<g transform="translate(480,760) scale(3.4333333333333)"><rect width="6" height="6"/></g>
<g transform="translate(500,760) scale(3.4333333333333)"><rect width="6" height="6"/></g>
<g transform="translate(520,760) scale(3.4333333333333)"><rect width="6" height="6"/></g>
<g transform="translate(560,760) scale(3.4333333333333)"><rect width="6" height="6"/></g>
<g transform="translate(660,760) scale(3.4333333333333)"><rect width="6" height="6"/></g>
<g transform="translate(700,760) scale(3.4333333333333)"><rect width="6" height="6"/></g>
<g transform="translate(720,760) scale(3.4333333333333)"><rect width="6" height="6"/></g>
<g transform="translate(760,760) scale(3.4333333333333)"><rect width="6" height="6"/></g>
<g transform="translate(780,760) scale(3.4333333333333)"><rect width="6" height="6"/></g>
<g transform="translate(800,760) scale(3.4333333333333)"><rect width="6" height="6"/></g>
<g transform="translate(820,760) scale(3.4333333333333)"><rect width="6" height="6"/></g>
<g transform="translate(840,760) scale(3.4333333333333)"><rect width="6" height="6"/></g>
<g transform="translate(860,760) scale(3.4333333333333)"><rect width="6" height="6"/></g>
<g transform="translate(200,780) scale(3.4333333333333)"><rect width="6" height="6"/></g>
<g transform="translate(220,780) scale(3.4333333333333)"><rect width="6" height="6"/></g>
<g transform="translate(240,780) scale(3.4333333333333)"><rect width="6" height="6"/></g>
<g transform="translate(320,780) scale(3.4333333333333)"><rect width="6" height="6"/></g>
<g transform="translate(340,780) scale(3.4333333333333)"><rect width="6" height="6"/></g>
<g transform="translate(360,780) scale(3.4333333333333)"><rect width="6" height="6"/></g>
<g transform="translate(400,780) scale(3.4333333333333)"><rect width="6" height="6"/></g>
<g transform="translate(440,780) scale(3.4333333333333)"><rect width="6" height="6"/></g>
<g transform="translate(520,780) scale(3.4333333333333)"><rect width="6" height="6"/></g>
<g transform="translate(560,780) scale(3.4333333333333)"><rect width="6" height="6"/></g>
<g transform="translate(600,780) scale(3.4333333333333)"><rect width="6" height="6"/></g>
<g transform="translate(620,780) scale(3.4333333333333)"><rect width="6" height="6"/></g>
<g transform="translate(640,780) scale(3.4333333333333)"><rect width="6" height="6"/></g>
<g transform="translate(720,780) scale(3.4333333333333)"><rect width="6" height="6"/></g>
<g transform="translate(740,780) scale(3.4333333333333)"><rect width="6" height="6"/></g>
<g transform="translate(760,780) scale(3.4333333333333)"><rect width="6" height="6"/></g>
<g transform="translate(840,780) scale(3.4333333333333)"><rect width="6" height="6"/></g>
<g transform="translate(880,780) scale(3.4333333333333)"><rect width="6" height="6"/></g>
<g transform="translate(920,780) scale(3.4333333333333)"><rect width="6" height="6"/></g>
<g transform="translate(200,800) scale(3.4333333333333)"><rect width="6" height="6"/></g>
<g transform="translate(240,800) scale(3.4333333333333)"><rect width="6" height="6"/></g>
<g transform="translate(260,800) scale(3.4333333333333)"><rect width="6" height="6"/></g>
<g transform="translate(280,800) scale(3.4333333333333)"><rect width="6" height="6"/></g>
<g transform="translate(340,800) scale(3.4333333333333)"><rect width="6" height="6"/></g>
<g transform="translate(380,800) scale(3.4333333333333)"><rect width="6" height="6"/></g>
<g transform="translate(440,800) scale(3.4333333333333)"><rect width="6" height="6"/></g>
<g transform="translate(480,800) scale(3.4333333333333)"><rect width="6" height="6"/></g>
<g transform="translate(520,800) scale(3.4333333333333)"><rect width="6" height="6"/></g>
<g transform="translate(540,800) scale(3.4333333333333)"><rect width="6" height="6"/></g>
<g transform="translate(560,800) scale(3.4333333333333)"><rect width="6" height="6"/></g>
<g transform="translate(680,800) scale(3.4333333333333)"><rect width="6" height="6"/></g>
<g transform="translate(700,800) scale(3.4333333333333)"><rect width="6" height="6"/></g>
<g transform="translate(760,800) scale(3.4333333333333)"><rect width="6" height="6"/></g>
<g transform="translate(800,800) scale(3.4333333333333)"><rect width="6" height="6"/></g>
<g transform="translate(840,800) scale(3.4333333333333)"><rect width="6" height="6"/></g>
<g transform="translate(880,800) scale(3.4333333333333)"><rect width="6" height="6"/></g>
<g transform="translate(200,820) scale(3.4333333333333)"><rect width="6" height="6"/></g>
<g transform="translate(220,820) scale(3.4333333333333)"><rect width="6" height="6"/></g>
<g transform="translate(240,820) scale(3.4333333333333)"><rect width="6" height="6"/></g>
<g transform="translate(300,820) scale(3.4333333333333)"><rect width="6" height="6"/></g>
<g transform="translate(320,820) scale(3.4333333333333)"><rect width="6" height="6"/></g>
<g transform="translate(380,820) scale(3.4333333333333)"><rect width="6" height="6"/></g>
<g transform="translate(400,820) scale(3.4333333333333)"><rect width="6" height="6"/></g>
<g transform="translate(420,820) scale(3.4333333333333)"><rect width="6" height="6"/></g>
<g transform="translate(440,820) scale(3.4333333333333)"><rect width="6" height="6"/></g>
<g transform="translate(520,820) scale(3.4333333333333)"><rect width="6" height="6"/></g>
<g transform="translate(560,820) scale(3.4333333333333)"><rect width="6" height="6"/></g>
<g transform="translate(600,820) scale(3.4333333333333)"><rect width="6" height="6"/></g>
<g transform="translate(640,820) scale(3.4333333333333)"><rect width="6" height="6"/></g>
<g transform="translate(680,820) scale(3.4333333333333)"><rect width="6" height="6"/></g>
<g transform="translate(720,820) scale(3.4333333333333)"><rect width="6" height="6"/></g>
<g transform="translate(740,820) scale(3.4333333333333)"><rect width="6" height="6"/></g>
<g transform="translate(760,820) scale(3.4333333333333)"><rect width="6" height="6"/></g>
<g transform="translate(840,820) scale(3.4333333333333)"><rect width="6" height="6"/></g>
<g transform="translate(860,820) scale(3.4333333333333)"><rect width="6" height="6"/></g>
<g transform="translate(880,820) scale(3.4333333333333)"><rect width="6" height="6"/></g>
<g transform="translate(900,820) scale(3.4333333333333)"><rect width="6" height="6"/></g>
<g transform="translate(920,820) scale(3.4333333333333)"><rect width="6" height="6"/></g>
<g transform="translate(200,840) scale(3.4333333333333)"><rect width="6" height="6"/></g>
<g transform="translate(220,840) scale(3.4333333333333)"><rect width="6" height="6"/></g>
<g transform="translate(240,840) scale(3.4333333333333)"><rect width="6" height="6"/></g>
<g transform="translate(260,840) scale(3.4333333333333)"><rect width="6" height="6"/></g>
<g transform="translate(300,840) scale(3.4333333333333)"><rect width="6" height="6"/></g>
<g transform="translate(320,840) scale(3.4333333333333)"><rect width="6" height="6"/></g>
<g transform="translate(420,840) scale(3.4333333333333)"><rect width="6" height="6"/></g>
<g transform="translate(440,840) scale(3.4333333333333)"><rect width="6" height="6"/></g>
<g transform="translate(460,840) scale(3.4333333333333)"><rect width="6" height="6"/></g>
<g transform="translate(480,840) scale(3.4333333333333)"><rect width="6" height="6"/></g>
<g transform="translate(500,840) scale(3.4333333333333)"><rect width="6" height="6"/></g>
<g transform="translate(520,840) scale(3.4333333333333)"><rect width="6" height="6"/></g>
<g transform="translate(540,840) scale(3.4333333333333)"><rect width="6" height="6"/></g>
<g transform="translate(560,840) scale(3.4333333333333)"><rect width="6" height="6"/></g>
<g transform="translate(620,840) scale(3.4333333333333)"><rect width="6" height="6"/></g>
<g transform="translate(640,840) scale(3.4333333333333)"><rect width="6" height="6"/></g>
<g transform="translate(720,840) scale(3.4333333333333)"><rect width="6" height="6"/></g>
<g transform="translate(740,840) scale(3.4333333333333)"><rect width="6" height="6"/></g>
<g transform="translate(760,840) scale(3.4333333333333)"><rect width="6" height="6"/></g>
<g transform="translate(780,840) scale(3.4333333333333)"><rect width="6" height="6"/></g>
<g transform="translate(800,840) scale(3.4333333333333)"><rect width="6" height="6"/></g>
<g transform="translate(820,840) scale(3.4333333333333)"><rect width="6" height="6"/></g>
<g transform="translate(840,840) scale(3.4333333333333)"><rect width="6" height="6"/></g>
<g transform="translate(860,840) scale(3.4333333333333)"><rect width="6" height="6"/></g>
<g transform="translate(200,860) scale(3.4333333333333)"><rect width="6" height="6"/></g>
<g transform="translate(220,860) scale(3.4333333333333)"><rect width="6" height="6"/></g>
<g transform="translate(240,860) scale(3.4333333333333)"><rect width="6" height="6"/></g>
<g transform="translate(260,860) scale(3.4333333333333)"><rect width="6" height="6"/></g>
<g transform="translate(320,860) scale(3.4333333333333)"><rect width="6" height="6"/></g>
<g transform="translate(340,860) scale(3.4333333333333)"><rect width="6" height="6"/></g>
<g transform="translate(380,860) scale(3.4333333333333)"><rect width="6" height="6"/></g>
<g transform="translate(400,860) scale(3.4333333333333)"><rect width="6" height="6"/></g>
<g transform="translate(420,860) scale(3.4333333333333)"><rect width="6" height="6"/></g>
<g transform="translate(440,860) scale(3.4333333333333)"><rect width="6" height="6"/></g>
<g transform="translate(480,860) scale(3.4333333333333)"><rect width="6" height="6"/></g>
<g transform="translate(520,860) scale(3.4333333333333)"><rect width="6" height="6"/></g>
<g transform="translate(540,860) scale(3.4333333333333)"><rect width="6" height="6"/></g>
<g transform="translate(560,860) scale(3.4333333333333)"><rect width="6" height="6"/></g>
<g transform="translate(580,860) scale(3.4333333333333)"><rect width="6" height="6"/></g>
<g transform="translate(620,860) scale(3.4333333333333)"><rect width="6" height="6"/></g>
<g transform="translate(640,860) scale(3.4333333333333)"><rect width="6" height="6"/></g>
<g transform="translate(680,860) scale(3.4333333333333)"><rect width="6" height="6"/></g>
<g transform="translate(700,860) scale(3.4333333333333)"><rect width="6" height="6"/></g>
<g transform="translate(840,860) scale(3.4333333333333)"><rect width="6" height="6"/></g>
<g transform="translate(860,860) scale(3.4333333333333)"><rect width="6" height="6"/></g>
<g transform="translate(200,880) scale(3.4333333333333)"><rect width="6" height="6"/></g>
<g transform="translate(220,880) scale(3.4333333333333)"><rect width="6" height="6"/></g>
<g transform="translate(240,880) scale(3.4333333333333)"><rect width="6" height="6"/></g>
<g transform="translate(260,880) scale(3.4333333333333)"><rect width="6" height="6"/></g>
<g transform="translate(300,880) scale(3.4333333333333)"><rect width="6" height="6"/></g>
<g transform="translate(320,880) scale(3.4333333333333)"><rect width="6" height="6"/></g>
<g transform="translate(360,880) scale(3.4333333333333)"><rect width="6" height="6"/></g>
<g transform="translate(380,880) scale(3.4333333333333)"><rect width="6" height="6"/></g>
<g transform="translate(400,880) scale(3.4333333333333)"><rect width="6" height="6"/></g>
<g transform="translate(520,880) scale(3.4333333333333)"><rect width="6" height="6"/></g>
<g transform="translate(560,880) scale(3.4333333333333)"><rect width="6" height="6"/></g>
<g transform="translate(620,880) scale(3.4333333333333)"><rect width="6" height="6"/></g>
<g transform="translate(660,880) scale(3.4333333333333)"><rect width="6" height="6"/></g>
<g transform="translate(700,880) scale(3.4333333333333)"><rect width="6" height="6"/></g>
<g transform="translate(720,880) scale(3.4333333333333)"><rect width="6" height="6"/></g>
<g transform="translate(740,880) scale(3.4333333333333)"><rect width="6" height="6"/></g>
<g transform="translate(760,880) scale(3.4333333333333)"><rect width="6" height="6"/></g>
<g transform="translate(860,880) scale(3.4333333333333)"><rect width="6" height="6"/></g>
<g transform="translate(880,880) scale(3.4333333333333)"><rect width="6" height="6"/></g>
<g transform="translate(900,880) scale(3.4333333333333)"><rect width="6" height="6"/></g>
<g transform="translate(200,900) scale(3.4333333333333)"><rect width="6" height="6"/></g>
<g transform="translate(240,900) scale(3.4333333333333)"><rect width="6" height="6"/></g>
<g transform="translate(260,900) scale(3.4333333333333)"><rect width="6" height="6"/></g>
<g transform="translate(280,900) scale(3.4333333333333)"><rect width="6" height="6"/></g>
<g transform="translate(300,900) scale(3.4333333333333)"><rect width="6" height="6"/></g>
<g transform="translate(480,900) scale(3.4333333333333)"><rect width="6" height="6"/></g>
<g transform="translate(520,900) scale(3.4333333333333)"><rect width="6" height="6"/></g>
<g transform="translate(560,900) scale(3.4333333333333)"><rect width="6" height="6"/></g>
<g transform="translate(580,900) scale(3.4333333333333)"><rect width="6" height="6"/></g>
<g transform="translate(620,900) scale(3.4333333333333)"><rect width="6" height="6"/></g>
<g transform="translate(680,900) scale(3.4333333333333)"><rect width="6" height="6"/></g>
<g transform="translate(700,900) scale(3.4333333333333)"><rect width="6" height="6"/></g>
<g transform="translate(720,900) scale(3.4333333333333)"><rect width="6" height="6"/></g>
<g transform="translate(760,900) scale(3.4333333333333)"><rect width="6" height="6"/></g>
<g transform="translate(780,900) scale(3.4333333333333)"><rect width="6" height="6"/></g>
<g transform="translate(820,900) scale(3.4333333333333)"><rect width="6" height="6"/></g>
<g transform="translate(860,900) scale(3.4333333333333)"><rect width="6" height="6"/></g>
<g transform="translate(880,900) scale(3.4333333333333)"><rect width="6" height="6"/></g>
<g transform="translate(280,920) scale(3.4333333333333)"><rect width="6" height="6"/></g>
<g transform="translate(300,920) scale(3.4333333333333)"><rect width="6" height="6"/></g>
<g transform="translate(320,920) scale(3.4333333333333)"><rect width="6" height="6"/></g>
<g transform="translate(340,920) scale(3.4333333333333)"><rect width="6" height="6"/></g>
<g transform="translate(420,920) scale(3.4333333333333)"><rect width="6" height="6"/></g>
<g transform="translate(440,920) scale(3.4333333333333)"><rect width="6" height="6"/></g>
<g transform="translate(460,920) scale(3.4333333333333)"><rect width="6" height="6"/></g>
<g transform="translate(480,920) scale(3.4333333333333)"><rect width="6" height="6"/></g>
<g transform="translate(540,920) scale(3.4333333333333)"><rect width="6" height="6"/></g>
<g transform="translate(560,920) scale(3.4333333333333)"><rect width="6" height="6"/></g>
<g transform="translate(600,920) scale(3.4333333333333)"><rect width="6" height="6"/></g>
<g transform="translate(660,920) scale(3.4333333333333)"><rect width="6" height="6"/></g>
<g transform="translate(700,920) scale(3.4333333333333)"><rect width="6" height="6"/></g>
<g transform="translate(760,920) scale(3.4333333333333)"><rect width="6" height="6"/></g>
<g transform="translate(780,920) scale(3.4333333333333)"><rect width="6" height="6"/></g>
<g transform="translate(800,920) scale(3.4333333333333)"><rect width="6" height="6"/></g>
<g transform="translate(900,920) scale(3.4333333333333)"><rect width="6" height="6"/></g>
<g transform="translate(40,40)"><g transform="scale(10)"><path d="M0,0v14h14V0H0z M12,12H2V2h10V12z"/></g></g>
<g transform="translate(800,40)"><g transform="scale(10)"><path d="M0,0v14h14V0H0z M12,12H2V2h10V12z"/></g></g>
<g transform="translate(40,800)"><g transform="scale(10)"><path d="M0,0v14h14V0H0z M12,12H2V2h10V12z"/></g></g>
<g transform="translate(80,80)"><g transform="scale(10)"><rect width="6" height="6"/></g></g>
<g transform="translate(840,80)"><g transform="scale(10)"><rect width="6" height="6"/></g></g>
<g transform="translate(80,840)"><g transform="scale(10)"><rect width="6" height="6"/></g></g>
</g></svg>
